<svg width="34" height="34" viewBox="0 0 34 34" fill="none" xmlns="http://www.w3.org/2000/svg">
<rect x="0.5" y="0.5" width="33" height="33" rx="6.5" fill="#12232D" stroke="#364650"/>
<path d="M9.072 26.24C8.096 26.24 7.208 25.992 6.408 25.496C5.624 25 5.008 24.336 4.56 23.504C4.448 23.312 4.392 23.128 4.392 22.952C4.392 22.68 4.496 22.464 4.704 22.304C4.912 22.128 5.12 22.04 5.328 22.04C5.504 22.04 5.664 22.088 5.808 22.184C5.968 22.28 6.104 22.4 6.216 22.544C6.536 23.088 6.936 23.52 7.416 23.84C7.896 24.16 8.448 24.32 9.072 24.32C9.728 24.32 10.304 24.176 10.8 23.888C11.312 23.6 11.712 23.208 12 22.712C12.304 22.2 12.456 21.624 12.456 20.984V10.16C12.456 9.888 12.552 9.664 12.744 9.488C12.952 9.296 13.2 9.2 13.488 9.2C13.776 9.2 14.008 9.296 14.184 9.488C14.376 9.664 14.472 9.888 14.472 10.16V20.984C14.472 21.96 14.232 22.848 13.752 23.648C13.288 24.448 12.648 25.08 11.832 25.544C11.032 26.008 10.112 26.24 9.072 26.24ZM22.3783 26.24C21.1943 26.24 20.1543 26.064 19.2583 25.712C18.3623 25.36 17.4983 24.8 16.6663 24.032C16.5543 23.92 16.4583 23.8 16.3783 23.672C16.3143 23.528 16.2823 23.376 16.2823 23.216C16.2823 22.96 16.3703 22.736 16.5463 22.544C16.7383 22.336 16.9703 22.232 17.2423 22.232C17.4663 22.232 17.6663 22.32 17.8423 22.496C18.4663 23.104 19.1383 23.568 19.8583 23.888C20.5943 24.208 21.4183 24.368 22.3303 24.368C23.0343 24.368 23.6663 24.256 24.2263 24.032C24.8023 23.808 25.2583 23.496 25.5943 23.096C25.9303 22.696 26.0983 22.232 26.0983 21.704C26.0823 21.064 25.8903 20.536 25.5223 20.12C25.1703 19.704 24.6743 19.36 24.0343 19.088C23.4103 18.8 22.6823 18.56 21.8503 18.368C21.1143 18.192 20.4343 17.976 19.8103 17.72C19.2023 17.464 18.6743 17.152 18.2263 16.784C17.7783 16.4 17.4263 15.944 17.1703 15.416C16.9303 14.872 16.8103 14.24 16.8103 13.52C16.8103 12.608 17.0503 11.808 17.5303 11.12C18.0103 10.432 18.6743 9.904 19.5223 9.536C20.3703 9.152 21.3463 8.96 22.4503 8.96C23.4263 8.96 24.3463 9.12 25.2103 9.44C26.0903 9.76 26.7943 10.2 27.3223 10.76C27.6423 11.064 27.8023 11.36 27.8023 11.648C27.8023 11.888 27.6983 12.112 27.4903 12.32C27.2983 12.512 27.0743 12.608 26.8183 12.608C26.6423 12.608 26.4823 12.544 26.3383 12.416C26.0663 12.112 25.7223 11.84 25.3063 11.6C24.8903 11.36 24.4343 11.168 23.9383 11.024C23.4423 10.88 22.9463 10.808 22.4503 10.808C21.7143 10.808 21.0663 10.92 20.5063 11.144C19.9463 11.352 19.5063 11.656 19.1863 12.056C18.8823 12.44 18.7303 12.904 18.7303 13.448C18.7303 14.056 18.9063 14.56 19.2583 14.96C19.6103 15.344 20.0823 15.664 20.6743 15.92C21.2663 16.16 21.9223 16.376 22.6423 16.568C23.4263 16.76 24.1463 16.984 24.8023 17.24C25.4743 17.48 26.0503 17.784 26.5303 18.152C27.0103 18.52 27.3783 18.992 27.6343 19.568C27.9063 20.128 28.0423 20.824 28.0423 21.656C28.0423 22.536 27.7943 23.32 27.2983 24.008C26.8023 24.696 26.1223 25.24 25.2583 25.64C24.4103 26.024 23.4503 26.224 22.3783 26.24Z" fill="white"/>
</svg>
