<svg width="715" height="129" viewBox="0 0 715 129" fill="none" xmlns="http://www.w3.org/2000/svg">
<rect x="1.5" y="5.5" width="712" height="122" rx="8.5" fill="#3C3C3C" stroke="#585858" stroke-width="3"/>
<path d="M375.168 100.96C370.56 100.96 366.464 100.192 362.88 98.656C359.36 97.12 355.936 94.72 352.608 91.456C351.84 90.816 351.456 90.048 351.456 89.152C351.456 88.384 351.744 87.68 352.32 87.04C352.96 86.4 353.664 86.08 354.432 86.08C355.2 86.08 355.904 86.4 356.544 87.04C361.536 92.544 367.776 95.296 375.264 95.296C379.872 95.296 383.68 94.208 386.688 92.032C389.76 89.856 391.296 87.008 391.296 83.488C391.296 80.736 390.528 78.464 388.992 76.672C387.52 74.816 385.568 73.312 383.136 72.16C380.704 71.008 377.6 69.824 373.824 68.608C369.728 67.392 366.272 66.048 363.456 64.576C360.704 63.104 358.464 61.152 356.736 58.72C355.008 56.224 354.144 53.088 354.144 49.312C354.144 45.92 355.04 42.912 356.832 40.288C358.688 37.664 361.248 35.616 364.512 34.144C367.84 32.608 371.648 31.84 375.936 31.84C379.84 31.84 383.488 32.512 386.88 33.856C390.336 35.136 393.088 36.992 395.136 39.424C396.096 40.512 396.576 41.44 396.576 42.208C396.576 42.912 396.256 43.584 395.616 44.224C394.976 44.8 394.272 45.088 393.504 45.088C392.864 45.088 392.32 44.864 391.872 44.416C390.144 42.368 387.84 40.704 384.96 39.424C382.08 38.144 379.072 37.504 375.936 37.504C371.264 37.504 367.456 38.56 364.512 40.672C361.568 42.72 360.096 45.536 360.096 49.12C360.096 52.832 361.504 55.68 364.32 57.664C367.136 59.648 371.168 61.472 376.416 63.136C380.96 64.48 384.672 65.856 387.552 67.264C390.432 68.672 392.768 70.688 394.56 73.312C396.416 75.872 397.344 79.264 397.344 83.488C397.344 86.752 396.384 89.728 394.464 92.416C392.608 95.04 389.984 97.12 386.592 98.656C383.264 100.192 379.456 100.96 375.168 100.96ZM443.57 94.912C444.146 95.552 444.434 96.288 444.434 97.12C444.434 97.952 444.082 98.656 443.378 99.232C442.738 99.744 442.13 100 441.554 100C440.722 100 440.018 99.648 439.442 98.944L418.226 76.48L411.026 82.624V97.12C411.026 97.952 410.738 98.656 410.162 99.232C409.65 99.744 408.978 100 408.146 100C407.314 100 406.61 99.744 406.034 99.232C405.522 98.656 405.266 97.952 405.266 97.12V31.84C405.266 31.008 405.522 30.336 406.034 29.824C406.61 29.248 407.314 28.96 408.146 28.96C408.978 28.96 409.65 29.248 410.162 29.824C410.738 30.336 411.026 31.008 411.026 31.84V75.616L438.77 51.712C439.346 51.072 440.018 50.752 440.786 50.752C441.49 50.752 442.13 51.072 442.706 51.712C443.282 52.288 443.57 52.928 443.57 53.632C443.57 54.4 443.218 55.136 442.514 55.84L422.738 72.64L443.57 94.912ZM487.841 50.08C488.673 50.08 489.345 50.368 489.857 50.944C490.433 51.456 490.721 52.128 490.721 52.96V95.296C490.721 100.352 489.729 104.672 487.745 108.256C485.761 111.84 483.009 114.56 479.489 116.416C475.969 118.272 472.001 119.2 467.585 119.2C464.897 119.2 462.369 118.912 460.001 118.336C457.697 117.76 455.777 116.992 454.241 116.032C452.897 115.2 452.225 114.272 452.225 113.248C452.225 113.12 452.289 112.8 452.417 112.288C452.609 111.648 452.929 111.168 453.377 110.848C453.825 110.528 454.305 110.368 454.817 110.368C455.201 110.368 455.585 110.464 455.969 110.656C460.065 112.896 463.969 114.016 467.681 114.016C472.993 114.016 477.185 112.352 480.257 109.024C483.393 105.696 484.961 101.152 484.961 95.392V92.032C483.361 94.72 481.057 96.896 478.049 98.56C475.041 100.16 471.777 100.96 468.257 100.96C462.689 100.96 458.465 99.296 455.585 95.968C452.705 92.64 451.265 88.128 451.265 82.432V52.96C451.265 52.128 451.521 51.456 452.033 50.944C452.609 50.368 453.313 50.08 454.145 50.08C454.977 50.08 455.649 50.368 456.161 50.944C456.737 51.456 457.025 52.128 457.025 52.96V81.568C457.025 86.176 458.017 89.664 460.001 92.032C462.049 94.4 465.217 95.584 469.505 95.584C472.129 95.584 474.625 94.944 476.993 93.664C479.425 92.32 481.345 90.592 482.753 88.48C484.225 86.304 484.961 84 484.961 81.568V52.96C484.961 52.128 485.217 51.456 485.729 50.944C486.305 50.368 487.009 50.08 487.841 50.08ZM521.775 49.792C524.783 49.792 527.567 50.144 530.127 50.848C532.751 51.488 534.831 52.384 536.367 53.536C537.967 54.688 538.767 55.936 538.767 57.28C538.767 57.984 538.511 58.624 537.999 59.2C537.551 59.776 536.975 60.064 536.271 60.064C535.631 60.064 535.087 59.936 534.639 59.68C534.255 59.424 533.807 59.04 533.295 58.528C532.463 57.696 531.663 57.088 530.895 56.704C529.935 56.256 528.655 55.904 527.055 55.648C525.519 55.328 523.855 55.168 522.063 55.168C518.543 55.168 515.311 56.064 512.367 57.856C509.487 59.648 507.215 62.08 505.551 65.152C503.887 68.224 503.055 71.616 503.055 75.328C503.055 79.168 503.855 82.624 505.455 85.696C507.055 88.768 509.263 91.2 512.079 92.992C514.959 94.72 518.223 95.584 521.871 95.584C524.175 95.584 525.999 95.392 527.343 95.008C528.751 94.624 530.127 94.08 531.471 93.376C531.919 93.12 532.687 92.544 533.775 91.648C534.287 91.2 534.735 90.88 535.119 90.688C535.503 90.432 535.919 90.304 536.367 90.304C537.135 90.304 537.743 90.56 538.191 91.072C538.639 91.52 538.863 92.128 538.863 92.896C538.863 93.984 538.095 95.168 536.559 96.448C535.023 97.664 532.911 98.72 530.223 99.616C527.535 100.512 524.559 100.96 521.295 100.96C516.623 100.96 512.463 99.872 508.815 97.696C505.167 95.456 502.319 92.384 500.271 88.48C498.287 84.576 497.295 80.192 497.295 75.328C497.295 70.656 498.319 66.4 500.367 62.56C502.415 58.656 505.295 55.552 509.007 53.248C512.719 50.944 516.975 49.792 521.775 49.792ZM568.016 49.792C569.296 49.792 570.448 50.048 571.472 50.56C572.496 51.072 573.008 51.84 573.008 52.864C573.008 53.76 572.752 54.496 572.24 55.072C571.728 55.584 571.12 55.84 570.416 55.84C570.096 55.84 569.456 55.68 568.496 55.36C567.6 55.04 566.736 54.88 565.904 54.88C563.536 54.88 561.168 55.808 558.8 57.664C556.496 59.456 554.576 61.792 553.04 64.672C551.568 67.552 550.832 70.464 550.832 73.408V97.12C550.832 97.952 550.544 98.656 549.968 99.232C549.456 99.744 548.784 100 547.952 100C547.12 100 546.416 99.744 545.84 99.232C545.328 98.656 545.072 97.952 545.072 97.12V54.112C545.072 53.28 545.328 52.608 545.84 52.096C546.416 51.52 547.12 51.232 547.952 51.232C548.784 51.232 549.456 51.52 549.968 52.096C550.544 52.608 550.832 53.28 550.832 54.112V62.56C552.304 58.912 554.512 55.904 557.456 53.536C560.464 51.104 563.984 49.856 568.016 49.792ZM616.525 72.64C616.525 73.408 616.237 74.08 615.661 74.656C615.085 75.168 614.413 75.424 613.645 75.424H577.357C577.357 79.264 578.125 82.72 579.661 85.792C581.261 88.8 583.501 91.2 586.381 92.992C589.325 94.72 592.781 95.584 596.749 95.584C599.821 95.584 602.573 94.944 605.005 93.664C607.437 92.384 609.389 90.752 610.861 88.768C611.565 88.192 612.237 87.904 612.877 87.904C613.517 87.904 614.093 88.16 614.605 88.672C615.117 89.184 615.373 89.76 615.373 90.4C615.373 91.104 615.053 91.776 614.413 92.416C612.365 94.912 609.773 96.96 606.637 98.56C603.565 100.16 600.301 100.96 596.845 100.96C591.917 100.96 587.565 99.904 583.789 97.792C580.013 95.68 577.069 92.736 574.957 88.96C572.845 85.12 571.789 80.704 571.789 75.712C571.789 70.464 572.813 65.888 574.861 61.984C576.973 58.016 579.757 55.008 583.213 52.96C586.669 50.848 590.349 49.792 594.253 49.792C598.093 49.792 601.677 50.688 605.005 52.48C608.397 54.272 611.149 56.896 613.261 60.352C615.373 63.808 616.461 67.904 616.525 72.64ZM594.253 55.36C590.541 55.36 587.085 56.64 583.885 59.2C580.749 61.76 578.733 65.44 577.837 70.24H610.573V69.472C610.253 66.592 609.293 64.096 607.693 61.984C606.093 59.808 604.077 58.176 601.645 57.088C599.277 55.936 596.813 55.36 594.253 55.36ZM620.813 92.224C620.301 91.392 620.045 90.688 620.045 90.112C620.045 89.28 620.461 88.64 621.293 88.192C621.677 87.808 622.189 87.616 622.829 87.616C623.597 87.616 624.301 87.936 624.941 88.576C628.717 93.568 633.741 96.064 640.013 96.064C643.085 96.064 645.741 95.36 647.981 93.952C650.285 92.48 651.437 90.368 651.437 87.616C651.437 84.928 650.381 82.912 648.269 81.568C646.157 80.224 643.213 79.072 639.437 78.112C634.125 76.768 629.965 75.04 626.957 72.928C623.949 70.752 622.445 67.584 622.445 63.424C622.445 60.8 623.181 58.464 624.653 56.416C626.125 54.304 628.109 52.672 630.605 51.52C633.165 50.368 636.045 49.792 639.245 49.792C641.997 49.792 644.749 50.336 647.501 51.424C650.317 52.448 652.717 54.112 654.701 56.416C655.277 56.864 655.565 57.504 655.565 58.336C655.565 59.104 655.245 59.776 654.605 60.352C654.157 60.736 653.581 60.928 652.877 60.928C652.237 60.928 651.661 60.672 651.149 60.16C649.613 58.432 647.789 57.12 645.677 56.224C643.565 55.328 641.293 54.88 638.861 54.88C635.853 54.88 633.261 55.584 631.085 56.992C628.973 58.4 627.917 60.512 627.917 63.328C628.045 65.888 629.197 67.84 631.373 69.184C633.613 70.528 636.877 71.744 641.165 72.832C644.493 73.664 647.245 74.592 649.421 75.616C651.597 76.64 653.357 78.08 654.701 79.936C656.109 81.792 656.813 84.256 656.813 87.328C656.813 91.488 655.149 94.816 651.821 97.312C648.493 99.744 644.365 100.96 639.437 100.96C631.629 100.96 625.421 98.048 620.813 92.224ZM673.396 56.512V88.672C673.396 91.104 673.844 92.768 674.74 93.664C675.636 94.496 676.82 94.912 678.292 94.912C678.676 94.912 679.156 94.848 679.732 94.72C680.308 94.528 680.756 94.432 681.076 94.432C681.652 94.432 682.132 94.688 682.516 95.2C682.964 95.648 683.188 96.192 683.188 96.832C683.188 97.728 682.676 98.496 681.652 99.136C680.628 99.712 679.412 100 678.004 100C676.276 100 674.74 99.84 673.396 99.52C672.052 99.2 670.74 98.24 669.46 96.64C668.244 95.04 667.636 92.48 667.636 88.96V56.512H660.628C659.86 56.512 659.188 56.256 658.612 55.744C658.1 55.232 657.844 54.592 657.844 53.824C657.844 53.056 658.1 52.416 658.612 51.904C659.188 51.392 659.86 51.136 660.628 51.136H667.636V40.48C667.636 39.648 667.892 38.976 668.404 38.464C668.98 37.888 669.684 37.6 670.516 37.6C671.348 37.6 672.02 37.888 672.532 38.464C673.108 38.976 673.396 39.648 673.396 40.48V51.136H682.996C683.7 51.136 684.308 51.424 684.82 52C685.396 52.576 685.684 53.216 685.684 53.92C685.684 54.688 685.428 55.328 684.916 55.84C684.404 56.288 683.764 56.512 682.996 56.512H673.396Z" fill="white"/>
<path d="M47.96 96.96C43.992 96.96 40.408 95.872 37.208 93.696C34.008 91.456 31.544 88.48 29.816 84.768C29.496 84.256 29.336 83.744 29.336 83.232C29.336 82.464 29.624 81.824 30.2 81.312C30.84 80.8 31.512 80.544 32.216 80.544C33.24 80.544 34.136 81.088 34.904 82.176C36.12 84.928 37.88 87.136 40.184 88.8C42.488 90.4 45.08 91.2 47.96 91.2C52.376 91.2 55.96 89.856 58.712 87.168C61.464 84.416 62.84 80.832 62.84 76.416V31.68C62.84 30.848 63.128 30.176 63.704 29.664C64.28 29.088 65.016 28.8 65.912 28.8C66.808 28.8 67.512 29.088 68.024 29.664C68.6 30.176 68.888 30.848 68.888 31.68V76.416C68.888 80.32 67.992 83.84 66.2 86.976C64.408 90.112 61.912 92.576 58.712 94.368C55.576 96.096 51.992 96.96 47.96 96.96ZM126.034 71.424C126.034 76.224 124.978 80.576 122.866 84.48C120.754 88.384 117.842 91.456 114.13 93.696C110.418 95.872 106.29 96.96 101.746 96.96C97.2015 96.96 93.0735 95.872 89.3615 93.696C85.6495 91.456 82.7375 88.384 80.6255 84.48C78.5135 80.576 77.4575 76.224 77.4575 71.424C77.4575 66.624 78.5135 62.272 80.6255 58.368C82.7375 54.464 85.6495 51.392 89.3615 49.152C93.0735 46.912 97.2015 45.792 101.746 45.792C106.29 45.792 110.418 46.912 114.13 49.152C117.842 51.392 120.754 54.464 122.866 58.368C124.978 62.272 126.034 66.624 126.034 71.424ZM120.274 71.424C120.274 67.584 119.474 64.128 117.874 61.056C116.274 57.984 114.034 55.584 111.154 53.856C108.338 52.064 105.202 51.168 101.746 51.168C98.2895 51.168 95.1535 52.064 92.3375 53.856C89.5215 55.584 87.2815 57.984 85.6175 61.056C84.0175 64.128 83.2175 67.584 83.2175 71.424C83.2175 75.2 84.0175 78.624 85.6175 81.696C87.2815 84.768 89.5215 87.2 92.3375 88.992C95.1535 90.72 98.2895 91.584 101.746 91.584C105.202 91.584 108.338 90.72 111.154 88.992C114.034 87.264 116.274 84.864 117.874 81.792C119.474 78.72 120.274 75.264 120.274 71.424ZM130.231 88.224C129.719 87.392 129.463 86.688 129.463 86.112C129.463 85.28 129.879 84.64 130.711 84.192C131.095 83.808 131.607 83.616 132.247 83.616C133.015 83.616 133.719 83.936 134.359 84.576C138.135 89.568 143.159 92.064 149.431 92.064C152.503 92.064 155.159 91.36 157.399 89.952C159.703 88.48 160.855 86.368 160.855 83.616C160.855 80.928 159.799 78.912 157.687 77.568C155.575 76.224 152.631 75.072 148.855 74.112C143.543 72.768 139.383 71.04 136.375 68.928C133.367 66.752 131.863 63.584 131.863 59.424C131.863 56.8 132.599 54.464 134.071 52.416C135.543 50.304 137.527 48.672 140.023 47.52C142.583 46.368 145.463 45.792 148.663 45.792C151.415 45.792 154.167 46.336 156.919 47.424C159.735 48.448 162.135 50.112 164.119 52.416C164.695 52.864 164.983 53.504 164.983 54.336C164.983 55.104 164.663 55.776 164.023 56.352C163.575 56.736 162.999 56.928 162.295 56.928C161.655 56.928 161.079 56.672 160.567 56.16C159.031 54.432 157.207 53.12 155.095 52.224C152.983 51.328 150.711 50.88 148.279 50.88C145.271 50.88 142.679 51.584 140.503 52.992C138.391 54.4 137.335 56.512 137.335 59.328C137.463 61.888 138.615 63.84 140.791 65.184C143.031 66.528 146.295 67.744 150.583 68.832C153.911 69.664 156.663 70.592 158.839 71.616C161.015 72.64 162.775 74.08 164.119 75.936C165.527 77.792 166.231 80.256 166.231 83.328C166.231 87.488 164.567 90.816 161.239 93.312C157.911 95.744 153.783 96.96 148.855 96.96C141.047 96.96 134.839 94.048 130.231 88.224ZM214.687 68.64C214.687 69.408 214.399 70.08 213.823 70.656C213.247 71.168 212.575 71.424 211.807 71.424H175.519C175.519 75.264 176.287 78.72 177.823 81.792C179.423 84.8 181.663 87.2 184.543 88.992C187.487 90.72 190.943 91.584 194.911 91.584C197.983 91.584 200.735 90.944 203.167 89.664C205.599 88.384 207.551 86.752 209.023 84.768C209.727 84.192 210.399 83.904 211.039 83.904C211.679 83.904 212.255 84.16 212.767 84.672C213.279 85.184 213.535 85.76 213.535 86.4C213.535 87.104 213.215 87.776 212.575 88.416C210.527 90.912 207.935 92.96 204.799 94.56C201.727 96.16 198.463 96.96 195.007 96.96C190.079 96.96 185.727 95.904 181.951 93.792C178.175 91.68 175.231 88.736 173.119 84.96C171.007 81.12 169.951 76.704 169.951 71.712C169.951 66.464 170.975 61.888 173.023 57.984C175.135 54.016 177.919 51.008 181.375 48.96C184.831 46.848 188.511 45.792 192.415 45.792C196.255 45.792 199.839 46.688 203.167 48.48C206.559 50.272 209.311 52.896 211.423 56.352C213.535 59.808 214.623 63.904 214.687 68.64ZM192.415 51.36C188.703 51.36 185.247 52.64 182.047 55.2C178.911 57.76 176.895 61.44 175.999 66.24H208.735V65.472C208.415 62.592 207.455 60.096 205.855 57.984C204.255 55.808 202.239 54.176 199.807 53.088C197.439 51.936 194.975 51.36 192.415 51.36ZM245.087 46.56C249.311 46.56 253.151 47.648 256.607 49.824C260.063 51.936 262.751 54.912 264.671 58.752C266.655 62.528 267.647 66.784 267.647 71.52C267.647 76.32 266.655 80.64 264.671 84.48C262.751 88.256 260.063 91.232 256.607 93.408C253.215 95.584 249.407 96.672 245.183 96.672C241.471 96.672 238.047 95.808 234.911 94.08C231.839 92.288 229.375 89.92 227.519 86.976V112.32C227.519 113.152 227.231 113.824 226.655 114.336C226.143 114.912 225.471 115.2 224.639 115.2C223.807 115.2 223.103 114.912 222.527 114.336C222.015 113.824 221.759 113.152 221.759 112.32V49.728C221.759 48.896 222.015 48.192 222.527 47.616C223.103 47.04 223.807 46.752 224.639 46.752C225.471 46.752 226.143 47.04 226.655 47.616C227.231 48.192 227.519 48.896 227.519 49.728V56.256C229.183 53.248 231.583 50.88 234.719 49.152C237.855 47.424 241.311 46.56 245.087 46.56ZM244.607 91.296C247.935 91.296 250.911 90.464 253.535 88.8C256.223 87.072 258.303 84.704 259.775 81.696C261.311 78.688 262.079 75.296 262.079 71.52C262.079 67.808 261.311 64.48 259.775 61.536C258.303 58.528 256.223 56.192 253.535 54.528C250.911 52.8 247.935 51.936 244.607 51.936C241.215 51.936 238.175 52.768 235.487 54.432C232.799 56.096 230.719 58.432 229.247 61.44C227.775 64.384 227.039 67.744 227.039 71.52C227.039 75.296 227.775 78.688 229.247 81.696C230.719 84.704 232.799 87.072 235.487 88.8C238.175 90.464 241.215 91.296 244.607 91.296ZM297.077 46.56C302.837 46.56 307.125 48.384 309.941 52.032C312.757 55.616 314.165 60.256 314.165 65.952V93.12C314.165 93.952 313.877 94.656 313.301 95.232C312.789 95.744 312.117 96 311.285 96C310.453 96 309.749 95.744 309.173 95.232C308.661 94.656 308.405 93.952 308.405 93.12V65.952C308.405 61.792 307.413 58.432 305.429 55.872C303.445 53.248 300.341 51.936 296.117 51.936C293.429 51.936 290.869 52.576 288.437 53.856C286.069 55.136 284.149 56.864 282.677 59.04C281.205 61.152 280.469 63.456 280.469 65.952V93.12C280.469 93.952 280.181 94.656 279.605 95.232C279.093 95.744 278.421 96 277.589 96C276.757 96 276.053 95.744 275.477 95.232C274.965 94.656 274.709 93.952 274.709 93.12V27.84C274.709 27.008 274.965 26.336 275.477 25.824C276.053 25.248 276.757 24.96 277.589 24.96C278.421 24.96 279.093 25.248 279.605 25.824C280.181 26.336 280.469 27.008 280.469 27.84V55.968C282.197 53.216 284.597 50.976 287.669 49.248C290.741 47.456 293.877 46.56 297.077 46.56Z" fill="white"/>
</svg>
