<svg width="610" height="125" viewBox="0 0 610 125" fill="none" xmlns="http://www.w3.org/2000/svg">
<rect x="1.5" y="1.5" width="607" height="122" rx="8.5" fill="#3C3C3C" stroke="#585858" stroke-width="3"/>
<path d="M43.9913 100.96C40.0233 100.96 36.4393 99.872 33.2393 97.696C30.0393 95.456 27.5753 92.48 25.8473 88.768C25.5273 88.256 25.3672 87.744 25.3672 87.232C25.3672 86.464 25.6553 85.824 26.2313 85.312C26.8713 84.8 27.5433 84.544 28.2473 84.544C29.2713 84.544 30.1673 85.088 30.9353 86.176C32.1513 88.928 33.9113 91.136 36.2153 92.8C38.5193 94.4 41.1113 95.2 43.9913 95.2C48.4073 95.2 51.9913 93.856 54.7433 91.168C57.4953 88.416 58.8713 84.832 58.8713 80.416V35.68C58.8713 34.848 59.1593 34.176 59.7353 33.664C60.3113 33.088 61.0473 32.8 61.9433 32.8C62.8393 32.8 63.5433 33.088 64.0553 33.664C64.6313 34.176 64.9193 34.848 64.9193 35.68V80.416C64.9193 84.32 64.0233 87.84 62.2313 90.976C60.4393 94.112 57.9433 96.576 54.7433 98.368C51.6073 100.096 48.0233 100.96 43.9913 100.96Z" fill="white"/>
<path d="M305.215 100.96C300.607 100.96 296.511 100.192 292.927 98.656C289.407 97.12 285.983 94.72 282.655 91.456C281.887 90.816 281.503 90.048 281.503 89.152C281.503 88.384 281.791 87.68 282.367 87.04C283.007 86.4 283.711 86.08 284.479 86.08C285.247 86.08 285.951 86.4 286.591 87.04C291.583 92.544 297.823 95.296 305.311 95.296C309.919 95.296 313.727 94.208 316.735 92.032C319.807 89.856 321.343 87.008 321.343 83.488C321.343 80.736 320.575 78.464 319.039 76.672C317.567 74.816 315.615 73.312 313.183 72.16C310.751 71.008 307.647 69.824 303.871 68.608C299.775 67.392 296.319 66.048 293.503 64.576C290.751 63.104 288.511 61.152 286.783 58.72C285.055 56.224 284.191 53.088 284.191 49.312C284.191 45.92 285.087 42.912 286.879 40.288C288.735 37.664 291.295 35.616 294.559 34.144C297.887 32.608 301.695 31.84 305.983 31.84C309.887 31.84 313.535 32.512 316.927 33.856C320.383 35.136 323.135 36.992 325.183 39.424C326.143 40.512 326.623 41.44 326.623 42.208C326.623 42.912 326.303 43.584 325.663 44.224C325.023 44.8 324.319 45.088 323.551 45.088C322.911 45.088 322.367 44.864 321.919 44.416C320.191 42.368 317.887 40.704 315.007 39.424C312.127 38.144 309.119 37.504 305.983 37.504C301.311 37.504 297.503 38.56 294.559 40.672C291.615 42.72 290.143 45.536 290.143 49.12C290.143 52.832 291.551 55.68 294.367 57.664C297.183 59.648 301.215 61.472 306.463 63.136C311.007 64.48 314.719 65.856 317.599 67.264C320.479 68.672 322.815 70.688 324.607 73.312C326.463 75.872 327.391 79.264 327.391 83.488C327.391 86.752 326.431 89.728 324.511 92.416C322.655 95.04 320.031 97.12 316.639 98.656C313.311 100.192 309.503 100.96 305.215 100.96Z" fill="white"/>
<path d="M115.602 76.6C115.602 80.9947 114.685 84.9413 112.85 88.44C111.015 91.9387 108.477 94.6907 105.234 96.696C101.991 98.6587 98.3007 99.64 94.162 99.64C90.0233 99.64 86.3327 98.6587 83.09 96.696C79.8473 94.6907 77.3087 91.9387 75.474 88.44C73.6393 84.9413 72.722 80.9947 72.722 76.6C72.722 72.1627 73.6393 68.1947 75.474 64.696C77.3087 61.1973 79.8473 58.4667 83.09 56.504C86.3327 54.5413 90.0233 53.56 94.162 53.56C98.3007 53.56 101.991 54.5413 105.234 56.504C108.477 58.4667 111.015 61.1973 112.85 64.696C114.685 68.1947 115.602 72.1627 115.602 76.6ZM111.506 76.6C111.506 72.888 110.759 69.5813 109.266 66.68C107.815 63.736 105.767 61.4533 103.122 59.832C100.519 58.2107 97.5327 57.4 94.162 57.4C90.7913 57.4 87.7833 58.2107 85.138 59.832C82.5353 61.4533 80.4873 63.736 78.994 66.68C77.5433 69.5813 76.818 72.888 76.818 76.6C76.818 80.312 77.5433 83.64 78.994 86.584C80.4873 89.4853 82.5353 91.7467 85.138 93.368C87.7833 94.9893 90.7913 95.8 94.162 95.8C97.5327 95.8 100.519 94.9893 103.122 93.368C105.767 91.7467 107.815 89.4853 109.266 86.584C110.759 83.64 111.506 80.312 111.506 76.6ZM133.562 99.64C130.49 99.64 127.759 99.128 125.37 98.104C123.023 97.08 120.741 95.48 118.522 93.304C118.01 92.8773 117.754 92.3653 117.754 91.768C117.754 91.256 117.946 90.7867 118.33 90.36C118.757 89.9333 119.226 89.72 119.738 89.72C120.25 89.72 120.719 89.9333 121.146 90.36C124.474 94.0293 128.634 95.864 133.626 95.864C136.698 95.864 139.237 95.1387 141.242 93.688C143.29 92.2373 144.314 90.3387 144.314 87.992C144.314 86.1573 143.802 84.6427 142.778 83.448C141.797 82.2107 140.495 81.208 138.874 80.44C137.253 79.672 135.183 78.8827 132.666 78.072C129.935 77.2613 127.631 76.3653 125.754 75.384C123.919 74.4027 122.426 73.1013 121.274 71.48C120.122 69.816 119.546 67.7253 119.546 65.208C119.546 62.9467 120.143 60.9413 121.338 59.192C122.575 57.4427 124.282 56.0773 126.458 55.096C128.677 54.072 131.215 53.56 134.074 53.56C136.677 53.56 139.109 54.008 141.37 54.904C143.674 55.7573 145.509 56.9947 146.874 58.616C147.514 59.3413 147.834 59.96 147.834 60.472C147.834 60.9413 147.621 61.3893 147.194 61.816C146.767 62.2 146.298 62.392 145.786 62.392C145.359 62.392 144.997 62.2427 144.698 61.944C143.546 60.5787 142.01 59.4693 140.09 58.616C138.17 57.7627 136.165 57.336 134.074 57.336C130.959 57.336 128.421 58.04 126.458 59.448C124.495 60.8133 123.514 62.6907 123.514 65.08C123.514 67.5547 124.453 69.4533 126.33 70.776C128.207 72.0987 130.895 73.3147 134.394 74.424C137.423 75.32 139.898 76.2373 141.818 77.176C143.738 78.1147 145.295 79.4587 146.49 81.208C147.727 82.9147 148.346 85.176 148.346 87.992C148.346 90.168 147.706 92.152 146.426 93.944C145.189 95.6933 143.439 97.08 141.178 98.104C138.959 99.128 136.421 99.64 133.562 99.64ZM179.612 95.224C180.166 95.224 180.614 95.416 180.956 95.8C181.34 96.184 181.532 96.632 181.532 97.144C181.532 97.6987 181.34 98.1467 180.956 98.488C180.614 98.8293 180.166 99 179.612 99H156.124C155.569 99 155.1 98.8293 154.716 98.488C154.374 98.104 154.204 97.6347 154.204 97.08V56.12C154.204 55.5653 154.374 55.1173 154.716 54.776C155.1 54.392 155.569 54.2 156.124 54.2H179.612C180.166 54.2 180.614 54.392 180.956 54.776C181.34 55.1173 181.532 55.5653 181.532 56.12C181.532 56.6747 181.34 57.1227 180.956 57.464C180.614 57.8053 180.166 57.976 179.612 57.976H158.236V74.04H176.732C177.286 74.04 177.734 74.232 178.076 74.616C178.46 74.9573 178.652 75.4053 178.652 75.96C178.652 76.5147 178.46 76.9627 178.076 77.304C177.734 77.6453 177.286 77.816 176.732 77.816H158.236V95.224H179.612ZM204.467 54.2C206.813 54.2 208.925 54.7547 210.803 55.864C212.68 56.9307 214.131 58.4453 215.155 60.408C216.221 62.328 216.755 64.504 216.755 66.936C216.755 69.368 216.221 71.5867 215.155 73.592C214.131 75.5973 212.68 77.176 210.803 78.328C208.925 79.48 206.813 80.056 204.467 80.056H191.219V97.08C191.219 97.6347 191.027 98.104 190.643 98.488C190.301 98.8293 189.853 99 189.299 99C188.744 99 188.275 98.8293 187.891 98.488C187.549 98.104 187.379 97.6347 187.379 97.08V56.12C187.379 55.5653 187.549 55.1173 187.891 54.776C188.275 54.392 188.744 54.2 189.299 54.2H204.467ZM204.467 76.344C206.941 76.344 208.947 75.448 210.483 73.656C212.019 71.864 212.787 69.624 212.787 66.936C212.787 64.2907 212.019 62.136 210.483 60.472C208.947 58.808 206.941 57.976 204.467 57.976H191.219V76.344H204.467ZM254.368 54.2C254.965 54.2 255.434 54.392 255.776 54.776C256.16 55.1173 256.352 55.5867 256.352 56.184V97.016C256.309 97.6133 256.096 98.104 255.712 98.488C255.328 98.8293 254.858 99 254.304 99C253.749 99 253.28 98.808 252.896 98.424C252.512 98.04 252.32 97.5707 252.32 97.016V77.944H226.336V97.016C226.293 97.5707 226.08 98.04 225.696 98.424C225.312 98.808 224.842 99 224.288 99C223.69 99 223.2 98.8293 222.816 98.488C222.474 98.104 222.304 97.6133 222.304 97.016V56.184C222.304 55.5867 222.496 55.1173 222.88 54.776C223.264 54.392 223.754 54.2 224.352 54.2C224.906 54.2 225.376 54.392 225.76 54.776C226.144 55.16 226.336 55.6293 226.336 56.184V74.232H252.32V56.184C252.32 55.6293 252.512 55.16 252.896 54.776C253.322 54.392 253.813 54.2 254.368 54.2Z" fill="white"/>
<path d="M367.782 95.864C368.08 96.2907 368.229 96.7387 368.229 97.208C368.229 97.848 367.995 98.36 367.526 98.744C367.099 99.0853 366.608 99.256 366.054 99.256C365.499 99.256 365.03 99.0213 364.646 98.552L346.789 76.088L338.085 84.28V97.016C338.043 97.6133 337.829 98.104 337.445 98.488C337.061 98.8293 336.592 99 336.037 99C335.44 99 334.949 98.8293 334.565 98.488C334.224 98.104 334.053 97.6133 334.053 97.016V56.184C334.053 55.5867 334.245 55.1173 334.629 54.776C335.013 54.392 335.504 54.2 336.101 54.2C336.699 54.2 337.168 54.392 337.509 54.776C337.893 55.1173 338.085 55.5867 338.085 56.184V79.416L363.942 54.968C364.326 54.5413 364.795 54.328 365.349 54.328C365.861 54.328 366.288 54.52 366.63 54.904C367.014 55.288 367.206 55.7147 367.206 56.184C367.206 56.696 367.014 57.144 366.63 57.528L349.861 73.208L367.782 95.864ZM403.899 55.864C403.899 56.1627 403.771 56.568 403.515 57.08L389.243 76.728V97.08C389.243 97.6347 389.051 98.104 388.667 98.488C388.283 98.8293 387.814 99 387.259 99C386.704 99 386.235 98.8293 385.851 98.488C385.51 98.104 385.339 97.6347 385.339 97.08V76.792L371.003 57.208C370.662 56.824 370.491 56.376 370.491 55.864C370.491 55.352 370.704 54.904 371.131 54.52C371.558 54.136 372.027 53.944 372.539 53.944C373.222 53.944 373.755 54.2427 374.139 54.84L387.387 72.888L400.315 54.84C400.784 54.2427 401.339 53.944 401.979 53.944C402.491 53.944 402.939 54.1573 403.323 54.584C403.707 54.968 403.899 55.3947 403.899 55.864ZM438.857 57.528C439.497 57.912 439.817 58.4453 439.817 59.128C439.817 59.512 439.668 59.9387 439.369 60.408C438.985 60.8773 438.495 61.112 437.897 61.112C437.556 61.112 437.215 61.0053 436.873 60.792C433.46 58.5307 429.727 57.4 425.673 57.4C422.217 57.4 419.081 58.2107 416.265 59.832C413.492 61.4533 411.295 63.736 409.673 66.68C408.095 69.5813 407.305 72.888 407.305 76.6C407.305 80.3973 408.116 83.768 409.737 86.712C411.359 89.6133 413.556 91.8747 416.329 93.496C419.145 95.0747 422.26 95.864 425.673 95.864C429.727 95.864 433.439 94.7547 436.809 92.536C437.151 92.3227 437.513 92.216 437.897 92.216C438.495 92.216 438.985 92.472 439.369 92.984C439.668 93.3253 439.817 93.7307 439.817 94.2C439.817 94.8827 439.519 95.3947 438.921 95.736C437.257 96.8453 435.209 97.784 432.778 98.552C430.345 99.2773 427.977 99.64 425.673 99.64C421.62 99.64 417.865 98.68 414.409 96.76C410.996 94.7973 408.265 92.0667 406.217 88.568C404.212 85.0693 403.209 81.08 403.209 76.6C403.209 72.2907 404.212 68.3867 406.217 64.888C408.223 61.3467 410.932 58.5947 414.345 56.632C417.759 54.6267 421.535 53.624 425.673 53.624C428.063 53.624 430.388 53.9653 432.649 54.648C434.953 55.3307 437.023 56.2907 438.857 57.528ZM477.47 95.544C478.11 95.9707 478.43 96.504 478.43 97.144C478.43 97.3573 478.345 97.6347 478.174 97.976C478.003 98.2747 477.769 98.5093 477.47 98.68C477.171 98.8507 476.851 98.936 476.51 98.936C476.083 98.936 475.721 98.8507 475.422 98.68C474.227 97.9973 473.267 96.888 472.542 95.352C471.817 93.816 471.454 91.3627 471.454 87.992C471.454 85.0053 470.622 82.9147 468.958 81.72C467.294 80.4827 465.31 79.864 463.006 79.864H448.798V97.08C448.798 97.6347 448.627 98.104 448.286 98.488C447.945 98.8293 447.497 99 446.942 99C446.345 99 445.833 98.8293 445.406 98.488C444.979 98.104 444.766 97.6347 444.766 97.08V56.12C444.766 55.5653 444.937 55.1173 445.278 54.776C445.662 54.392 446.131 54.2 446.686 54.2H463.966C466.398 54.2 468.574 54.7333 470.494 55.8C472.414 56.824 473.907 58.2533 474.974 60.088C476.083 61.9227 476.638 63.992 476.638 66.296C476.638 69.0267 475.913 71.4373 474.462 73.528C473.054 75.576 471.198 76.984 468.894 77.752C470.771 78.4773 472.307 79.7147 473.502 81.464C474.697 83.1707 475.315 85.2613 475.358 87.736C475.401 90.3813 475.571 92.2373 475.87 93.304C476.211 94.3707 476.745 95.1173 477.47 95.544ZM464.158 76.344C465.651 76.216 467.038 75.7253 468.318 74.872C469.598 74.0187 470.622 72.8667 471.39 71.416C472.158 69.9653 472.542 68.3013 472.542 66.424C472.542 63.992 471.71 61.9867 470.046 60.408C468.425 58.7867 466.291 57.976 463.646 57.976H448.798V76.344H464.158ZM509.849 95.224C510.404 95.224 510.852 95.416 511.193 95.8C511.577 96.184 511.769 96.632 511.769 97.144C511.769 97.6987 511.577 98.1467 511.193 98.488C510.852 98.8293 510.404 99 509.849 99H486.361C485.806 99 485.337 98.8293 484.953 98.488C484.612 98.104 484.441 97.6347 484.441 97.08V56.12C484.441 55.5653 484.612 55.1173 484.953 54.776C485.337 54.392 485.806 54.2 486.361 54.2H509.849C510.404 54.2 510.852 54.392 511.193 54.776C511.577 55.1173 511.769 55.5653 511.769 56.12C511.769 56.6747 511.577 57.1227 511.193 57.464C510.852 57.8053 510.404 57.976 509.849 57.976H488.473V74.04H506.969C507.524 74.04 507.972 74.232 508.313 74.616C508.697 74.9573 508.889 75.4053 508.889 75.96C508.889 76.5147 508.697 76.9627 508.313 77.304C507.972 77.6453 507.524 77.816 506.969 77.816H488.473V95.224H509.849ZM529.712 99.64C526.64 99.64 523.909 99.128 521.52 98.104C519.173 97.08 516.891 95.48 514.672 93.304C514.16 92.8773 513.904 92.3653 513.904 91.768C513.904 91.256 514.096 90.7867 514.48 90.36C514.907 89.9333 515.376 89.72 515.888 89.72C516.4 89.72 516.869 89.9333 517.296 90.36C520.624 94.0293 524.784 95.864 529.776 95.864C532.848 95.864 535.387 95.1387 537.392 93.688C539.44 92.2373 540.464 90.3387 540.464 87.992C540.464 86.1573 539.952 84.6427 538.928 83.448C537.947 82.2107 536.645 81.208 535.024 80.44C533.403 79.672 531.333 78.8827 528.816 78.072C526.085 77.2613 523.781 76.3653 521.904 75.384C520.069 74.4027 518.576 73.1013 517.424 71.48C516.272 69.816 515.696 67.7253 515.696 65.208C515.696 62.9467 516.293 60.9413 517.488 59.192C518.725 57.4427 520.432 56.0773 522.608 55.096C524.827 54.072 527.365 53.56 530.224 53.56C532.827 53.56 535.259 54.008 537.52 54.904C539.824 55.7573 541.659 56.9947 543.024 58.616C543.664 59.3413 543.984 59.96 543.984 60.472C543.984 60.9413 543.771 61.3893 543.344 61.816C542.917 62.2 542.448 62.392 541.936 62.392C541.509 62.392 541.147 62.2427 540.848 61.944C539.696 60.5787 538.16 59.4693 536.24 58.616C534.32 57.7627 532.315 57.336 530.224 57.336C527.109 57.336 524.571 58.04 522.608 59.448C520.645 60.8133 519.664 62.6907 519.664 65.08C519.664 67.5547 520.603 69.4533 522.48 70.776C524.357 72.0987 527.045 73.3147 530.544 74.424C533.573 75.32 536.048 76.2373 537.968 77.176C539.888 78.1147 541.445 79.4587 542.64 81.208C543.877 82.9147 544.496 85.176 544.496 87.992C544.496 90.168 543.856 92.152 542.576 93.944C541.339 95.6933 539.589 97.08 537.328 98.104C535.109 99.128 532.571 99.64 529.712 99.64ZM578.897 54.2C579.452 54.2 579.9 54.3707 580.241 54.712C580.625 55.0533 580.817 55.5013 580.817 56.056C580.817 56.6107 580.625 57.0587 580.241 57.4C579.9 57.6987 579.452 57.848 578.897 57.848H565.649V97.08C565.649 97.6347 565.457 98.104 565.073 98.488C564.689 98.8293 564.22 99 563.665 99C563.068 99 562.577 98.8293 562.193 98.488C561.852 98.104 561.681 97.6347 561.681 97.08V57.848H548.433C547.879 57.848 547.409 57.6773 547.025 57.336C546.684 56.9947 546.513 56.5467 546.513 55.992C546.513 55.48 546.684 55.0533 547.025 54.712C547.409 54.3707 547.879 54.2 548.433 54.2H578.897Z" fill="white"/>
</svg>
