<svg width="715" height="128" viewBox="0 0 715 128" fill="none" xmlns="http://www.w3.org/2000/svg">
<rect x="1.5" y="4.5" width="712" height="122" rx="8.5" fill="#132430" stroke="#364650" stroke-width="3"/>
<path d="M40.288 96.96C36.384 96.96 32.832 95.968 29.632 93.984C26.496 92 24.032 89.344 22.24 86.016C21.792 85.248 21.568 84.512 21.568 83.808C21.568 82.72 21.984 81.856 22.816 81.216C23.648 80.512 24.48 80.16 25.312 80.16C26.016 80.16 26.656 80.352 27.232 80.736C27.872 81.12 28.416 81.6 28.864 82.176C30.144 84.352 31.744 86.08 33.664 87.36C35.584 88.64 37.792 89.28 40.288 89.28C42.912 89.28 45.216 88.704 47.2 87.552C49.248 86.4 50.848 84.832 52 82.848C53.216 80.8 53.824 78.496 53.824 75.936V32.64C53.824 31.552 54.208 30.656 54.976 29.952C55.808 29.184 56.8 28.8 57.952 28.8C59.104 28.8 60.032 29.184 60.736 29.952C61.504 30.656 61.888 31.552 61.888 32.64V75.936C61.888 79.84 60.928 83.392 59.008 86.592C57.152 89.792 54.592 92.32 51.328 94.176C48.128 96.032 44.448 96.96 40.288 96.96ZM119.721 71.04C119.721 76.032 118.601 80.48 116.361 84.384C114.185 88.288 111.209 91.36 107.433 93.6C103.721 95.84 99.5293 96.96 94.8573 96.96C90.1853 96.96 85.9613 95.84 82.1853 93.6C78.4093 91.36 75.4013 88.288 73.1613 84.384C70.9853 80.48 69.8973 76.032 69.8973 71.04C69.8973 66.048 70.9853 61.6 73.1613 57.696C75.4013 53.792 78.4093 50.72 82.1853 48.48C85.9613 46.24 90.1853 45.12 94.8573 45.12C99.5293 45.12 103.721 46.24 107.433 48.48C111.209 50.72 114.185 53.792 116.361 57.696C118.601 61.6 119.721 66.048 119.721 71.04ZM112.041 71.04C112.041 67.328 111.273 64.064 109.737 61.248C108.265 58.432 106.217 56.224 103.593 54.624C101.033 53.024 98.1213 52.224 94.8573 52.224C91.5933 52.224 88.6493 53.024 86.0253 54.624C83.4653 56.224 81.4173 58.432 79.8813 61.248C78.3453 64.064 77.5773 67.328 77.5773 71.04C77.5773 74.688 78.3453 77.92 79.8813 80.736C81.4173 83.552 83.4653 85.792 86.0253 87.456C88.6493 89.056 91.5933 89.856 94.8573 89.856C98.1213 89.856 101.033 89.056 103.593 87.456C106.217 85.792 108.265 83.552 109.737 80.736C111.273 77.92 112.041 74.688 112.041 71.04ZM123.689 88.128C123.113 87.296 122.857 86.432 122.921 85.536C122.985 84.576 123.529 83.744 124.553 83.04C125.193 82.592 125.929 82.4 126.761 82.464C127.657 82.528 128.457 82.944 129.161 83.712C130.953 85.824 133.001 87.52 135.305 88.8C137.609 90.016 140.425 90.624 143.753 90.624C145.289 90.56 146.825 90.304 148.361 89.856C149.897 89.408 151.177 88.64 152.201 87.552C153.289 86.4 153.833 84.896 153.833 83.04C153.833 81.248 153.289 79.84 152.201 78.816C151.113 77.728 149.705 76.864 147.977 76.224C146.249 75.52 144.361 74.912 142.313 74.4C140.201 73.824 138.121 73.184 136.073 72.48C134.025 71.712 132.169 70.784 130.505 69.696C128.905 68.544 127.593 67.136 126.569 65.472C125.609 63.744 125.129 61.664 125.129 59.232C125.129 56.352 125.897 53.856 127.433 51.744C129.033 49.632 131.145 48 133.769 46.848C136.457 45.696 139.369 45.12 142.505 45.12C144.297 45.12 146.153 45.344 148.073 45.792C150.057 46.176 151.977 46.88 153.833 47.904C155.689 48.864 157.321 50.208 158.729 51.936C159.305 52.576 159.625 53.376 159.689 54.336C159.753 55.296 159.337 56.16 158.441 56.928C157.737 57.44 156.937 57.664 156.041 57.6C155.209 57.536 154.505 57.216 153.929 56.64C152.585 55.04 150.889 53.824 148.841 52.992C146.857 52.096 144.649 51.648 142.217 51.648C140.681 51.648 139.177 51.872 137.705 52.32C136.233 52.768 134.985 53.536 133.961 54.624C133.001 55.648 132.521 57.088 132.521 58.944C132.585 60.672 133.161 62.08 134.249 63.168C135.337 64.256 136.809 65.152 138.665 65.856C140.521 66.496 142.569 67.136 144.809 67.776C146.857 68.288 148.809 68.896 150.665 69.6C152.585 70.24 154.313 71.104 155.849 72.192C157.385 73.28 158.601 74.688 159.497 76.416C160.393 78.08 160.841 80.192 160.841 82.752C160.841 85.696 160.009 88.256 158.345 90.432C156.681 92.544 154.473 94.176 151.721 95.328C149.033 96.416 146.121 96.96 142.985 96.96C139.465 96.96 135.977 96.288 132.521 94.944C129.129 93.6 126.185 91.328 123.689 88.128ZM190.086 96.96C184.966 96.96 180.486 95.872 176.646 93.696C172.806 91.52 169.798 88.544 167.622 84.768C165.51 80.928 164.454 76.512 164.454 71.52C164.454 65.952 165.542 61.216 167.718 57.312C169.958 53.344 172.838 50.336 176.358 48.288C179.942 46.176 183.718 45.12 187.686 45.12C190.63 45.12 193.478 45.664 196.23 46.752C198.982 47.84 201.414 49.44 203.526 51.552C205.638 53.6 207.334 56.096 208.614 59.04C209.894 61.92 210.566 65.152 210.63 68.736C210.63 69.76 210.246 70.624 209.478 71.328C208.71 72.032 207.814 72.384 206.79 72.384H168.87L167.142 65.76H204.102L202.566 67.104V64.992C202.31 62.368 201.414 60.128 199.878 58.272C198.406 56.352 196.582 54.88 194.406 53.856C192.294 52.832 190.054 52.32 187.686 52.32C185.766 52.32 183.846 52.672 181.926 53.376C180.07 54.016 178.374 55.104 176.838 56.64C175.366 58.112 174.15 60.032 173.19 62.4C172.294 64.768 171.846 67.616 171.846 70.944C171.846 74.656 172.582 77.92 174.054 80.736C175.59 83.552 177.702 85.792 180.39 87.456C183.078 89.056 186.214 89.856 189.798 89.856C192.038 89.856 193.99 89.568 195.654 88.992C197.318 88.416 198.758 87.712 199.974 86.88C201.19 85.984 202.214 85.088 203.046 84.192C203.878 83.616 204.678 83.328 205.446 83.328C206.406 83.328 207.174 83.648 207.75 84.288C208.39 84.928 208.71 85.696 208.71 86.592C208.71 87.68 208.198 88.64 207.174 89.472C205.382 91.456 202.95 93.216 199.878 94.752C196.806 96.224 193.542 96.96 190.086 96.96ZM241.853 45.6C246.205 45.6 250.109 46.688 253.565 48.864C257.021 51.04 259.741 54.048 261.725 57.888C263.773 61.728 264.797 66.144 264.797 71.136C264.797 76.064 263.773 80.48 261.725 84.384C259.741 88.224 257.021 91.264 253.565 93.504C250.173 95.68 246.333 96.768 242.045 96.768C239.677 96.768 237.437 96.416 235.325 95.712C233.277 94.944 231.389 93.984 229.661 92.832C227.997 91.616 226.589 90.272 225.437 88.8C224.285 87.264 223.453 85.76 222.941 84.288L225.053 82.944V111.264C225.053 112.352 224.701 113.28 223.997 114.048C223.293 114.816 222.365 115.2 221.213 115.2C220.125 115.2 219.197 114.816 218.429 114.048C217.725 113.344 217.373 112.416 217.373 111.264V49.92C217.373 48.832 217.725 47.936 218.429 47.232C219.197 46.464 220.125 46.08 221.213 46.08C222.365 46.08 223.293 46.464 223.997 47.232C224.701 47.936 225.053 48.832 225.053 49.92V58.464L223.613 57.696C224.061 56.096 224.829 54.56 225.917 53.088C227.069 51.616 228.445 50.336 230.045 49.248C231.709 48.096 233.533 47.2 235.517 46.56C237.565 45.92 239.677 45.6 241.853 45.6ZM240.989 52.704C237.789 52.704 234.941 53.504 232.445 55.104C230.013 56.704 228.093 58.88 226.685 61.632C225.341 64.384 224.669 67.552 224.669 71.136C224.669 74.656 225.341 77.824 226.685 80.64C228.093 83.456 230.013 85.664 232.445 87.264C234.941 88.864 237.789 89.664 240.989 89.664C244.189 89.664 247.005 88.864 249.437 87.264C251.869 85.664 253.789 83.456 255.197 80.64C256.605 77.824 257.309 74.656 257.309 71.136C257.309 67.552 256.605 64.384 255.197 61.632C253.789 58.88 251.869 56.704 249.437 55.104C247.005 53.504 244.189 52.704 240.989 52.704ZM295.542 45.6C299.766 45.6 303.094 46.528 305.526 48.384C308.022 50.176 309.782 52.608 310.806 55.68C311.894 58.688 312.438 62.048 312.438 65.76V92.064C312.438 93.152 312.054 94.08 311.286 94.848C310.582 95.616 309.686 96 308.598 96C307.51 96 306.582 95.616 305.814 94.848C305.11 94.08 304.758 93.152 304.758 92.064V65.76C304.758 63.328 304.406 61.152 303.702 59.232C302.998 57.248 301.814 55.68 300.15 54.528C298.55 53.312 296.342 52.704 293.526 52.704C290.902 52.704 288.502 53.312 286.326 54.528C284.15 55.68 282.422 57.248 281.142 59.232C279.862 61.152 279.222 63.328 279.222 65.76V92.064C279.222 93.152 278.838 94.08 278.07 94.848C277.366 95.616 276.47 96 275.382 96C274.294 96 273.366 95.616 272.598 94.848C271.894 94.08 271.542 93.152 271.542 92.064V28.8C271.542 27.712 271.894 26.816 272.598 26.112C273.366 25.344 274.294 24.96 275.382 24.96C276.534 24.96 277.462 25.344 278.166 26.112C278.87 26.816 279.222 27.712 279.222 28.8V57.504L277.302 59.616C277.622 57.952 278.326 56.288 279.414 54.624C280.502 52.896 281.878 51.36 283.542 50.016C285.206 48.672 287.062 47.616 289.109 46.848C291.158 46.016 293.302 45.6 295.542 45.6ZM364.432 96.96C359.696 96.96 355.536 96.256 351.952 94.848C348.368 93.44 344.912 91.2 341.584 88.128C341.136 87.68 340.752 87.2 340.432 86.688C340.176 86.112 340.048 85.504 340.048 84.864C340.048 83.84 340.4 82.944 341.104 82.176C341.872 81.344 342.8 80.928 343.888 80.928C344.784 80.928 345.584 81.28 346.288 81.984C348.784 84.416 351.472 86.272 354.352 87.552C357.296 88.832 360.592 89.472 364.24 89.472C367.056 89.472 369.584 89.024 371.824 88.128C374.128 87.232 375.952 85.984 377.296 84.384C378.64 82.784 379.312 80.928 379.312 78.816C379.248 76.256 378.48 74.144 377.008 72.48C375.6 70.816 373.616 69.44 371.056 68.352C368.56 67.2 365.648 66.24 362.32 65.472C359.376 64.768 356.656 63.904 354.16 62.88C351.728 61.856 349.616 60.608 347.824 59.136C346.032 57.6 344.624 55.776 343.6 53.664C342.64 51.488 342.16 48.96 342.16 46.08C342.16 42.432 343.12 39.232 345.04 36.48C346.96 33.728 349.616 31.616 353.008 30.144C356.4 28.608 360.304 27.84 364.72 27.84C368.624 27.84 372.304 28.48 375.76 29.76C379.28 31.04 382.096 32.8 384.208 35.04C385.488 36.256 386.128 37.44 386.128 38.592C386.128 39.552 385.712 40.448 384.88 41.28C384.112 42.048 383.216 42.432 382.192 42.432C381.488 42.432 380.848 42.176 380.272 41.664C379.184 40.448 377.808 39.36 376.144 38.4C374.48 37.44 372.656 36.672 370.672 36.096C368.688 35.52 366.704 35.232 364.72 35.232C361.776 35.232 359.184 35.68 356.944 36.576C354.704 37.408 352.944 38.624 351.664 40.224C350.448 41.76 349.84 43.616 349.84 45.792C349.84 48.224 350.544 50.24 351.952 51.84C353.36 53.376 355.248 54.656 357.616 55.68C359.984 56.64 362.608 57.504 365.488 58.272C368.624 59.04 371.504 59.936 374.128 60.96C376.816 61.92 379.12 63.136 381.04 64.608C382.96 66.08 384.432 67.968 385.456 70.272C386.544 72.512 387.088 75.296 387.088 78.624C387.088 82.144 386.096 85.28 384.112 88.032C382.128 90.784 379.408 92.96 375.952 94.56C372.56 96.096 368.72 96.896 364.432 96.96ZM398.437 96C397.285 96 396.357 95.616 395.653 94.848C394.949 94.08 394.597 93.152 394.597 92.064V28.8C394.597 27.712 394.949 26.816 395.653 26.112C396.357 25.344 397.285 24.96 398.437 24.96C399.525 24.96 400.421 25.344 401.125 26.112C401.893 26.816 402.277 27.712 402.277 28.8V92.064C402.277 93.152 401.893 94.08 401.125 94.848C400.421 95.616 399.525 96 398.437 96ZM430.309 46.08C431.333 46.08 432.197 46.496 432.901 47.328C433.669 48.096 434.053 48.896 434.053 49.728C434.053 50.816 433.541 51.776 432.517 52.608L401.413 79.776L401.125 70.848L427.621 47.232C428.389 46.464 429.285 46.08 430.309 46.08ZM431.365 95.904C430.277 95.904 429.317 95.488 428.485 94.656L408.037 72.864L413.797 67.584L434.053 89.28C434.821 90.112 435.205 91.072 435.205 92.16C435.205 93.312 434.757 94.24 433.861 94.944C432.965 95.584 432.133 95.904 431.365 95.904ZM478.681 45.6C479.769 45.6 480.665 45.984 481.369 46.752C482.137 47.456 482.521 48.352 482.521 49.44V91.296C482.521 96.672 481.465 101.12 479.353 104.64C477.241 108.224 474.393 110.88 470.809 112.608C467.289 114.336 463.289 115.2 458.809 115.2C456.313 115.2 453.913 114.944 451.609 114.432C449.305 113.92 447.417 113.248 445.945 112.416C444.729 111.84 443.865 111.104 443.353 110.208C442.905 109.376 442.841 108.48 443.161 107.52C443.609 106.368 444.249 105.568 445.081 105.12C445.977 104.672 446.905 104.672 447.865 105.12C448.889 105.568 450.361 106.176 452.281 106.944C454.265 107.776 456.473 108.192 458.905 108.192C462.233 108.192 465.081 107.552 467.449 106.272C469.817 104.992 471.641 103.104 472.921 100.608C474.201 98.176 474.841 95.136 474.841 91.488V84.672L475.993 87.072C474.969 89.056 473.593 90.784 471.865 92.256C470.137 93.728 468.153 94.88 465.913 95.712C463.673 96.544 461.209 96.96 458.521 96.96C454.873 96.96 451.769 96.192 449.209 94.656C446.713 93.056 444.793 90.88 443.449 88.128C442.169 85.312 441.529 82.08 441.529 78.432V49.44C441.529 48.352 441.881 47.456 442.585 46.752C443.353 45.984 444.281 45.6 445.369 45.6C446.521 45.6 447.449 45.984 448.153 46.752C448.857 47.456 449.209 48.352 449.209 49.44V76.704C449.209 81.056 450.169 84.352 452.089 86.592C454.009 88.768 456.985 89.856 461.017 89.856C463.577 89.856 465.881 89.28 467.929 88.128C470.041 86.976 471.705 85.408 472.921 83.424C474.201 81.376 474.841 79.136 474.841 76.704V49.44C474.841 48.352 475.193 47.456 475.897 46.752C476.601 45.984 477.529 45.6 478.681 45.6ZM513.559 45.12C516.823 45.12 519.767 45.472 522.391 46.176C525.015 46.88 527.095 47.84 528.631 49.056C530.167 50.272 530.935 51.648 530.935 53.184C530.935 54.016 530.647 54.816 530.071 55.584C529.495 56.352 528.727 56.736 527.767 56.736C526.871 56.736 526.135 56.576 525.559 56.256C525.047 55.936 524.535 55.52 524.023 55.008C523.575 54.496 522.935 54.048 522.103 53.664C521.335 53.216 520.215 52.864 518.743 52.608C517.271 52.352 515.799 52.224 514.327 52.224C510.807 52.224 507.703 53.056 505.015 54.72C502.391 56.384 500.311 58.624 498.775 61.44C497.239 64.256 496.471 67.456 496.471 71.04C496.471 74.624 497.207 77.824 498.679 80.64C500.151 83.456 502.199 85.696 504.823 87.36C507.447 89.024 510.487 89.856 513.943 89.856C516.183 89.856 517.975 89.664 519.319 89.28C520.663 88.896 521.783 88.448 522.679 87.936C523.831 87.296 524.695 86.656 525.271 86.016C525.911 85.376 526.743 85.056 527.767 85.056C528.855 85.056 529.687 85.408 530.263 86.112C530.903 86.816 531.223 87.68 531.223 88.704C531.223 89.856 530.423 91.072 528.823 92.352C527.223 93.632 525.047 94.72 522.295 95.616C519.607 96.512 516.535 96.96 513.079 96.96C508.215 96.96 503.959 95.84 500.311 93.6C496.663 91.296 493.815 88.192 491.767 84.288C489.783 80.32 488.791 75.904 488.791 71.04C488.791 66.176 489.815 61.792 491.863 57.888C493.975 53.984 496.887 50.88 500.599 48.576C504.311 46.272 508.631 45.12 513.559 45.12ZM540.3 96C539.212 96 538.284 95.616 537.516 94.848C536.812 94.08 536.46 93.152 536.46 92.064V50.208C536.46 49.12 536.812 48.224 537.516 47.52C538.284 46.752 539.212 46.368 540.3 46.368C541.452 46.368 542.38 46.752 543.084 47.52C543.788 48.224 544.14 49.12 544.14 50.208V62.88L542.988 60.864C543.372 58.88 544.044 56.96 545.004 55.104C546.028 53.184 547.308 51.488 548.844 50.016C550.38 48.48 552.14 47.296 554.124 46.464C556.108 45.568 558.284 45.12 560.652 45.12C562.06 45.12 563.34 45.472 564.492 46.176C565.708 46.816 566.316 47.744 566.316 48.96C566.316 50.304 565.964 51.296 565.26 51.936C564.556 52.576 563.756 52.896 562.86 52.896C562.028 52.896 561.228 52.736 560.46 52.416C559.692 52.032 558.732 51.84 557.58 51.84C555.98 51.84 554.38 52.288 552.78 53.184C551.244 54.016 549.804 55.232 548.46 56.832C547.18 58.432 546.124 60.256 545.292 62.304C544.524 64.288 544.14 66.432 544.14 68.736V92.064C544.14 93.152 543.756 94.08 542.988 94.848C542.284 95.616 541.388 96 540.3 96ZM590.979 96.96C585.859 96.96 581.379 95.872 577.539 93.696C573.699 91.52 570.691 88.544 568.515 84.768C566.403 80.928 565.347 76.512 565.347 71.52C565.347 65.952 566.435 61.216 568.611 57.312C570.851 53.344 573.731 50.336 577.251 48.288C580.835 46.176 584.611 45.12 588.579 45.12C591.523 45.12 594.371 45.664 597.123 46.752C599.875 47.84 602.307 49.44 604.419 51.552C606.531 53.6 608.227 56.096 609.507 59.04C610.787 61.92 611.459 65.152 611.523 68.736C611.523 69.76 611.139 70.624 610.371 71.328C609.603 72.032 608.707 72.384 607.683 72.384H569.763L568.035 65.76H604.995L603.459 67.104V64.992C603.203 62.368 602.307 60.128 600.771 58.272C599.299 56.352 597.475 54.88 595.299 53.856C593.187 52.832 590.947 52.32 588.579 52.32C586.659 52.32 584.739 52.672 582.819 53.376C580.963 54.016 579.267 55.104 577.731 56.64C576.259 58.112 575.043 60.032 574.083 62.4C573.187 64.768 572.739 67.616 572.739 70.944C572.739 74.656 573.475 77.92 574.947 80.736C576.483 83.552 578.595 85.792 581.283 87.456C583.971 89.056 587.107 89.856 590.691 89.856C592.931 89.856 594.883 89.568 596.547 88.992C598.211 88.416 599.651 87.712 600.867 86.88C602.083 85.984 603.107 85.088 603.939 84.192C604.771 83.616 605.571 83.328 606.339 83.328C607.299 83.328 608.067 83.648 608.643 84.288C609.283 84.928 609.603 85.696 609.603 86.592C609.603 87.68 609.091 88.64 608.067 89.472C606.275 91.456 603.843 93.216 600.771 94.752C597.699 96.224 594.435 96.96 590.979 96.96ZM615.482 88.128C614.906 87.296 614.65 86.432 614.714 85.536C614.778 84.576 615.322 83.744 616.346 83.04C616.986 82.592 617.722 82.4 618.554 82.464C619.45 82.528 620.25 82.944 620.954 83.712C622.746 85.824 624.794 87.52 627.098 88.8C629.402 90.016 632.218 90.624 635.546 90.624C637.082 90.56 638.618 90.304 640.154 89.856C641.69 89.408 642.97 88.64 643.994 87.552C645.082 86.4 645.626 84.896 645.626 83.04C645.626 81.248 645.082 79.84 643.994 78.816C642.906 77.728 641.498 76.864 639.77 76.224C638.042 75.52 636.154 74.912 634.106 74.4C631.994 73.824 629.914 73.184 627.866 72.48C625.818 71.712 623.962 70.784 622.298 69.696C620.698 68.544 619.386 67.136 618.362 65.472C617.402 63.744 616.922 61.664 616.922 59.232C616.922 56.352 617.69 53.856 619.226 51.744C620.826 49.632 622.938 48 625.562 46.848C628.25 45.696 631.162 45.12 634.298 45.12C636.09 45.12 637.946 45.344 639.866 45.792C641.85 46.176 643.77 46.88 645.626 47.904C647.482 48.864 649.114 50.208 650.522 51.936C651.098 52.576 651.418 53.376 651.482 54.336C651.546 55.296 651.13 56.16 650.234 56.928C649.53 57.44 648.73 57.664 647.834 57.6C647.002 57.536 646.298 57.216 645.722 56.64C644.378 55.04 642.682 53.824 640.634 52.992C638.65 52.096 636.442 51.648 634.01 51.648C632.474 51.648 630.97 51.872 629.498 52.32C628.026 52.768 626.778 53.536 625.754 54.624C624.794 55.648 624.314 57.088 624.314 58.944C624.378 60.672 624.954 62.08 626.042 63.168C627.13 64.256 628.602 65.152 630.458 65.856C632.314 66.496 634.362 67.136 636.602 67.776C638.65 68.288 640.602 68.896 642.458 69.6C644.378 70.24 646.106 71.104 647.642 72.192C649.178 73.28 650.394 74.688 651.29 76.416C652.186 78.08 652.634 80.192 652.634 82.752C652.634 85.696 651.802 88.256 650.138 90.432C648.474 92.544 646.266 94.176 643.514 95.328C640.826 96.416 637.914 96.96 634.778 96.96C631.258 96.96 627.77 96.288 624.314 94.944C620.922 93.6 617.978 91.328 615.482 88.128ZM657.015 46.656H679.575C680.599 46.656 681.431 47.008 682.071 47.712C682.775 48.416 683.127 49.248 683.127 50.208C683.127 51.232 682.775 52.096 682.071 52.8C681.431 53.44 680.599 53.76 679.575 53.76H657.015C656.055 53.76 655.223 53.408 654.519 52.704C653.815 52 653.463 51.136 653.463 50.112C653.463 49.152 653.815 48.352 654.519 47.712C655.223 47.008 656.055 46.656 657.015 46.656ZM667.095 33.6C668.183 33.6 669.079 33.984 669.783 34.752C670.487 35.456 670.839 36.352 670.839 37.44V83.808C670.839 85.344 671.063 86.496 671.511 87.264C671.959 88.032 672.535 88.576 673.239 88.896C674.007 89.152 674.743 89.28 675.447 89.28C676.087 89.28 676.631 89.184 677.079 88.992C677.591 88.736 678.167 88.608 678.807 88.608C679.447 88.608 680.023 88.928 680.535 89.568C681.111 90.144 681.399 90.912 681.399 91.872C681.399 93.024 680.727 94.016 679.383 94.848C678.039 95.616 676.535 96 674.871 96C673.975 96 672.855 95.936 671.511 95.808C670.231 95.68 668.951 95.264 667.671 94.56C666.391 93.856 665.303 92.704 664.407 91.104C663.575 89.44 663.159 87.136 663.159 84.192V37.44C663.159 36.352 663.543 35.456 664.311 34.752C665.079 33.984 666.007 33.6 667.095 33.6Z" fill="white"/>
</svg>
