<svg width="125" height="125" viewBox="0 0 125 125" fill="none" xmlns="http://www.w3.org/2000/svg">
<path d="M101.33 33.5007L100.798 30.841C106.117 29.5113 110.106 29.7771 110.106 29.7771V32.4368C109.84 32.7028 105.585 32.7028 101.33 33.5007Z" fill="#DCDCDC"/>
<path d="M71.2767 25.7878C70.7449 25.7878 70.2128 25.5217 69.681 25.5217V22.8623C70.2128 22.8623 71.0107 22.8623 71.5427 23.1283L71.2767 25.7878Z" fill="#DCDCDC"/>
<path d="M75.7979 63.8198L75.2661 61.1602C81.6491 60.0963 87.5002 59.2984 92.0214 59.2984L92.2875 61.9581C92.2872 61.9581 83.5106 62.7559 75.7979 63.8198Z" fill="#DCDCDC"/>
<path d="M76.8618 2.1176C77.1279 2.1176 77.6597 1.85156 77.9258 1.85156H78.1918C77.9255 2.1176 77.3937 2.1176 76.8618 2.1176Z" fill="#F3F3F3"/>
<path d="M63.298 65.4156C63.298 65.4156 62.7662 64.0859 61.7023 61.9581L64.0959 60.6284C64.8938 62.2241 65.4256 63.288 65.9577 64.0859L63.298 65.4156Z" fill="#DCDCDC"/>
<path d="M101.596 75.2561L100.266 73.6604C99.4683 72.3307 98.4044 70.7349 97.3408 69.1392L99.4683 67.5434C100.532 68.8731 101.596 70.4689 102.66 71.7988L103.192 72.5967L101.596 75.2561Z" fill="#DCDCDC"/>
<path d="M28.9895 46.2667L27.9256 43.873H28.1916C28.4576 43.873 28.7234 43.607 28.9895 43.607L29.7874 46.0006L28.9895 46.2667Z" fill="#DCDCDC"/>
<path d="M26.8616 48.3942L24.7341 46.7985C25.798 45.4688 26.5959 44.6709 27.3937 44.1388L28.9895 46.2664C29.2553 46.0006 28.1916 46.7985 26.8616 48.3942Z" fill="#DCDCDC"/>
<path d="M0.531839 69.671C7.07805e-06 65.4156 7.07805e-06 60.8944 0.531839 56.639C1.06367 59.8305 1.86154 62.7559 3.1915 65.1496L0.531839 69.671Z" fill="#F3F3F3"/>
<path d="M125 62.4901C125 64.8838 125 67.2774 124.468 69.671C124.202 71.2668 123.936 72.8625 123.67 74.7243C123.67 74.4582 123.404 74.1925 123.404 74.1925L125 62.4901Z" fill="#DCDCDC"/>
<path d="M105.053 78.4474C105.053 78.4474 111.968 78.4474 118.085 76.8516V83.7664L119.681 88.2876C115.426 97.3303 109.309 105.309 101.596 111.426L94.6811 105.043C94.6808 105.043 104.521 89.3518 105.053 78.4474Z" fill="#172D3B"/>
<path d="M101.596 72.5965C103.192 74.724 104.256 76.8519 105.053 78.4476C105.053 78.4474 103.457 75.788 101.596 72.5965Z" fill="#172D3B"/>
<path d="M118.085 76.5858C120.213 76.054 122.075 75.2561 123.67 73.9262C123.67 73.9262 123.67 74.1922 123.936 74.458C122.872 79.2452 121.543 83.7664 119.681 88.0218L118.085 83.5006V76.5858Z" fill="#172D3B"/>
<path d="M69.1489 109.299C69.1489 109.299 83.2446 109.299 92.8191 105.841L101.064 111.692C89.0957 121.001 74.2022 126.054 58.2447 124.724L55.3193 122.065C60.6383 120.735 69.1489 109.299 69.1489 109.299Z" fill="#DCDCDC"/>
<path d="M94.6808 105.043L101.596 111.426C101.33 111.426 101.33 111.692 101.064 111.692L92.8191 105.841C93.3511 105.575 93.883 105.309 94.6808 105.043Z" fill="#DCDCDC"/>
<path d="M48.4042 121.267V123.394C38.0319 121.001 28.7234 116.213 21.0105 109.299L27.3935 107.969C29.5213 112.224 40.6915 118.873 48.4042 121.267Z" fill="#F3F3F3"/>
<path d="M48.6703 123.394V121.267C51.5957 122.065 53.9893 122.596 55.3193 122.331L58.2447 124.99C57.1808 124.99 56.383 124.724 55.3193 124.724C52.9257 124.192 50.7978 123.926 48.6703 123.394Z" fill="#F3F3F3"/>
<path d="M38.2979 9.8303C30.3192 13.2878 21.5426 27.6495 21.5426 27.6495C21.5426 27.6495 21.5426 27.6495 21.5426 27.3835V27.1175C21.5426 27.1175 21.5426 27.1175 21.5426 26.8514C21.5426 26.8514 21.5426 26.8514 21.5426 27.1175V27.3835C21.5426 27.3835 21.5426 27.3835 21.5426 27.6495C21.5426 27.6495 13.032 31.6389 6.11694 35.3622C12.766 21.2666 24.7341 10.3624 38.8297 4.51123C38.5639 6.63906 38.2979 8.50059 38.2979 9.8303Z" fill="#F3F3F3"/>
<path d="M16.7553 68.6071C16.7553 68.6071 18.8829 80.3091 27.3937 89.0857C25.0001 97.3305 27.3937 108.501 27.3937 108.501L21.0107 109.83C9.57449 99.7241 2.12759 85.6282 0.266052 70.2028L2.65967 65.6816C2.92546 64.8838 10.9042 68.341 16.7553 68.6071Z" fill="#DCDCDC"/>
<path d="M101.596 72.8625C100.798 71.5328 99.7341 69.937 98.6705 68.3413C95.479 64.0859 92.5535 60.6286 92.5535 60.6286C92.5535 60.6286 83.5109 61.4265 75.7982 62.4904C69.4152 63.5543 64.628 64.884 64.628 64.884L54.2556 89.0862L62.5004 99.9904L69.1494 109.033C69.1494 109.033 83.2451 109.033 92.8195 105.576C93.3514 105.309 94.1493 105.044 94.6813 104.778C94.6813 104.778 104.788 89.0862 105.054 78.1818C105.053 78.4473 103.457 75.7879 101.596 72.8625Z" fill="#DCDCDC"/>
<path d="M5.05328 38.0219L22.0746 31.1071C23.6704 36.6922 28.1916 44.9369 28.1916 44.9369C27.3937 45.4688 26.5958 46.2666 25.798 47.3306C22.6065 50.7878 17.5532 58.2347 16.7553 68.341L2.65966 64.8835C1.59575 62.4901 0.797873 59.5644 0 56.3729C0 55.8411 0 55.5751 0 55.0432C1.06391 49.1921 2.65966 43.3409 5.05328 38.0219Z" fill="#172D3B"/>
<path d="M22.0744 31.107L5.05304 38.0219C5.31908 37.224 5.85091 36.4261 6.11695 35.3622C13.032 31.6389 21.5426 27.6495 21.5426 27.6495C21.5426 28.4474 21.8086 29.7771 22.0744 31.107Z" fill="#172D3B"/>
<path d="M2.92545 64.8837L17.0211 68.3413C10.9042 68.341 2.92545 64.8837 2.92545 64.8837Z" fill="#172D3B"/>
<path d="M54.2554 89.0857L62.5001 99.9899L54.5214 105.043L50.0002 110.894L27.6598 108.235V88.8197C27.6595 88.82 46.5427 92.8093 54.2554 89.0857Z" fill="#172D3B"/>
<path d="M49.9999 110.894L54.5211 105.043L62.4999 100.256L69.1489 109.299C69.1489 109.299 60.3723 120.735 55.0532 122.331L55.3193 111.426L49.9999 110.894Z" fill="#172D3B"/>
<path d="M48.4042 112.756L48.6702 121.267C40.9576 118.607 29.7873 112.224 27.6595 108.235L50 110.894L48.4042 112.756Z" fill="#172D3B"/>
<path d="M50 110.894L55.5851 111.426L55.319 122.33C53.9893 122.862 51.5957 122.33 48.67 121.266L48.404 112.756L50 110.894Z" fill="#172D3B"/>
<path d="M27.6595 88.8199V108.235C27.3937 108.235 25.2659 97.0645 27.6595 88.8199Z" fill="#172D3B"/>
<path d="M92.2872 60.6283C86.9681 60.8944 80.851 61.6922 75.7979 62.7559C70.7446 63.5538 66.2234 64.3517 64.6277 65.1495C64.3617 64.3517 63.8298 63.022 63.032 61.692C60.6383 57.1708 56.1171 48.66 50.7978 42.277C55.8511 34.5643 69.9468 24.7238 69.9468 24.7238C70.4786 24.7238 71.0107 24.7238 71.5425 24.9899C80.0531 26.3196 94.149 35.6282 94.149 35.6282C94.149 35.6282 90.9575 45.4688 92.2872 60.6283Z" fill="#172D3B"/>
<path d="M64.6277 64.8837C66.2235 64.0859 70.7447 63.288 75.7979 62.4901C69.4149 63.8198 64.6277 64.8837 64.6277 64.8837Z" fill="#172D3B"/>
<path d="M64.6277 64.8837L54.2553 89.086C43.0851 91.7456 27.6595 88.8199 27.6595 88.8199L17.0211 68.3413H17.2872C17.2872 68.3413 17.5532 68.3413 17.819 68.3413C18.3508 68.3413 18.8829 68.3413 19.1487 68.3413H19.4147C19.4147 68.3413 19.6808 68.3413 19.4147 68.3413H19.1489C18.8829 68.3413 18.3511 68.3413 17.8192 68.3413C17.5532 68.3413 17.5532 68.3413 17.2874 68.3413C17.0216 68.3413 17.0214 68.3413 17.0214 68.3413C17.0214 68.3413 21.5426 53.7135 26.064 47.3305C27.3937 45.7348 28.4576 44.9369 28.4576 44.9369C28.7237 44.9369 28.9895 44.6709 29.2555 44.6709C35.9045 42.5433 50.532 42.0112 50.532 42.0112C50.532 42.0112 59.0426 54.5112 62.7662 61.4262C64.0959 63.5538 64.6277 64.8837 64.6277 64.8837Z" fill="#F3F3F3"/>
<path d="M16.7553 68.6071L27.3937 89.0857C18.8829 80.3091 16.7553 68.6071 16.7553 68.6071Z" fill="#F3F3F3"/>
<path d="M26.0638 47.3303C21.2765 53.7133 17.0211 68.341 17.0211 68.341C17.8192 58.2347 22.8723 51.0539 26.0638 47.3303Z" fill="#F3F3F3"/>
<path d="M54.2554 89.0857C46.8085 92.5433 27.6595 88.8197 27.6595 88.8197C27.6595 88.8197 43.0851 92.0112 54.2554 89.0857Z" fill="#F3F3F3"/>
<path d="M63.032 61.4262C59.0426 54.2454 50.7978 42.0112 50.7978 42.0112C55.8511 48.6603 60.6383 56.905 63.032 61.4262Z" fill="#F3F3F3"/>
<path d="M62.5001 9.29848C55.0532 8.23456 45.7448 8.76665 41.2236 9.29848C39.3618 9.56452 38.2979 9.56452 38.2979 9.56452C30.3192 13.022 21.5426 27.3838 21.5426 27.3838C21.5426 27.9156 22.0744 28.9795 22.6065 30.5753C24.4683 35.6285 28.4576 44.6709 28.4576 44.6709C28.7237 44.6709 28.9895 44.4049 29.2555 44.4049C36.7024 41.7452 50.532 41.7452 50.532 41.7452C56.649 31.6389 69.681 24.192 69.681 24.192C69.681 24.192 64.0959 11.6921 62.5001 9.29848Z" fill="#DCDCDC"/>
<path d="M28.4574 44.937C28.4574 44.937 23.9362 36.4264 22.3404 31.1071L22.6065 30.841C24.468 35.8943 28.4574 44.937 28.4574 44.937Z" fill="#F3F3F3"/>
<path d="M22.6065 30.841L22.0746 31.1071C21.8086 29.7774 21.5428 28.7135 21.5428 27.6495C21.5426 28.1816 22.0744 29.5113 22.6065 30.841Z" fill="#F3F3F3"/>
<path d="M50.532 42.0113C56.649 31.905 69.681 24.4581 69.681 24.4581C69.681 24.4581 55.585 34.2986 50.532 42.0113Z" fill="#F3F3F3"/>
<path d="M50.532 42.0113C50.532 42.0113 35.6385 42.5431 29.2555 44.6709C36.4361 42.0113 50.532 42.0113 50.532 42.0113Z" fill="#F3F3F3"/>
<path d="M93.883 35.0964C93.883 35.0964 81.9149 25.788 71.2765 24.458C70.7446 24.458 70.2126 24.192 69.6807 24.192C68.351 18.3409 62.4999 9.29847 62.4999 9.29847C62.4999 9.29847 71.5425 3.44732 76.8616 2.11761C77.3934 2.11761 77.9255 2.11761 78.1913 2.11761C79.521 2.38366 81.1167 2.91549 82.4467 3.44732C85.1064 4.51123 89.0957 6.37277 92.819 7.96851C97.8723 10.894 102.394 14.3515 106.383 18.3409C107.979 21.2663 109.574 25.7878 109.574 31.3729C109.574 31.3729 105.585 31.1068 100.798 32.4368C98.1384 32.9689 95.2129 33.7665 93.883 35.0964Z" fill="#F3F3F3"/>
<path d="M93.883 35.0964C93.883 35.0964 79.7873 25.788 71.2765 24.4581C81.9149 25.7878 93.883 35.0964 93.883 35.0964Z" fill="#F3F3F3"/>
<path d="M62.5001 9.29846C62.5001 9.29846 68.0852 18.3411 69.681 24.192C69.681 24.458 64.0959 11.6921 62.5001 9.29846Z" fill="#F3F3F3"/>
<path d="M62.5001 9.29847C62.5001 9.29847 50.266 6.90485 41.7554 8.5006L42.0215 7.96877L41.2236 3.71336C50.0002 0.52187 59.8407 -0.807834 69.681 0.521871C72.6064 0.787911 75.2661 1.31974 77.9258 2.11762C77.6597 2.11762 77.1279 2.11762 76.8618 2.38366C69.681 3.18153 62.5001 9.29847 62.5001 9.29847Z" fill="#172D3B"/>
<path d="M41.7554 8.76666C40.4257 9.0327 39.3618 9.29849 38.2979 9.83057C38.2979 8.76666 38.8297 6.63908 39.0958 4.77729C39.8937 4.24546 40.4255 3.97942 41.2234 3.71338L42.0212 8.23458L41.7554 8.76666Z" fill="#172D3B"/>
<path d="M41.2234 9.29849L41.7552 8.50061C50.2658 7.17091 62.4999 9.29849 62.4999 9.29849C55.0532 8.23482 45.7448 9.0327 41.2234 9.29849Z" fill="#172D3B"/>
<path d="M38.2979 9.83033C39.3618 9.2985 40.4255 9.03246 41.7554 8.76642L41.2236 9.29825C39.3618 9.56454 38.2979 9.83033 38.2979 9.83033Z" fill="#172D3B"/>
<path d="M76.8619 2.11761C71.8086 3.44732 62.5002 9.29847 62.5002 9.29847C62.5002 9.29847 69.681 3.18153 76.8619 2.11761Z" fill="#172D3B"/>
<path d="M122.606 45.7348C122.075 44.1391 121.809 42.5433 121.011 41.2136C115.692 34.2988 109.574 31.3731 109.574 31.3731C109.574 31.3731 105.053 31.6391 100.798 32.437C98.6702 32.9689 96.0106 34.0328 93.6169 35.3625C91.7552 43.6072 92.0212 60.8944 92.0212 60.8944C93.3509 61.6923 95.7445 65.1498 98.1381 68.6071C99.2021 69.9368 100.266 71.5325 101.33 72.8625C102.925 74.9901 103.989 77.1179 104.787 78.7136C104.787 78.7136 104.787 78.1818 104.787 77.6497C104.787 77.9158 104.787 78.4476 104.787 78.7136C104.787 78.7136 111.702 78.7136 117.819 77.1179C119.947 76.5861 121.809 75.7882 123.404 74.4582L124.734 62.7562C125 56.639 124.202 51.0539 122.606 45.7348Z" fill="#F3F3F3"/>
<path d="M92.2872 60.6284C93.6169 61.4262 96.0105 64.8838 98.4042 68.341C95.4787 64.0859 92.2872 60.6284 92.2872 60.6284Z" fill="#F3F3F3"/>
<path d="M93.883 35.0964C92.0212 43.3412 92.2872 60.6284 92.2872 60.6284C90.9575 45.4688 93.883 35.0964 93.883 35.0964Z" fill="#F3F3F3"/>
<path d="M101.064 32.171C98.9362 32.7028 96.2766 33.7667 93.883 35.0964C95.2129 33.7665 98.1384 32.9689 101.064 32.171Z" fill="#F3F3F3"/>
<path d="M109.84 31.3731C109.84 31.3731 110.372 25.2562 107.979 19.6711C113.564 25.5222 118.085 32.7031 121.011 40.4158C118.085 36.4262 114.362 32.7028 109.84 31.3731Z" fill="#172D3B"/>
<path d="M106.649 18.3411C107.181 18.873 107.447 19.139 107.979 19.6708C110.372 25.2559 109.84 31.3729 109.84 31.3729C109.84 25.522 108.245 21.2666 106.649 18.3411Z" fill="#172D3B"/>
<path d="M109.84 31.3731C114.362 32.7028 118.085 36.6922 120.745 40.4158C120.745 40.6818 121.011 40.9476 121.011 41.2137C115.958 34.0325 109.84 31.3731 109.84 31.3731Z" fill="#172D3B"/>
</svg>
